<?xml version="1.0" encoding="UTF-8"?>
<svg id="Layer_1" xmlns="http://www.w3.org/2000/svg" version="1.1" viewBox="0 0 140 32.8">
  <!-- Generator: Adobe Illustrator 30.2.1, SVG Export Plug-In . SVG Version: 2.1.1 Build 1)  -->
  <defs>
    <style>
      .st0 {
        fill: #034694;
        fill-rule: evenodd;
      }
    </style>
  </defs>
  <g>
    <path class="st0" d="M41.4,3.06c.6.4,1.4,1.1,1.7,1.7,0,.1.1.1.1.2l6.6,14.5c-.1.8-.5,1.1-1.3,1.5-.4.1-.9.2-1,.2-1,.1-1.9-.1-2.6-.8-.1-.1-.3-.3-.3-.3,0-.1-.1-.1-.1-.2l-6.6-14.5-.1-.1c-.1-.1-.5-.1-.5-.1-.4,0-.9.3-.9.3h0l-5.8,8.7c-.2.3-.2,1-.1,1.3,0,.2.1.4.3.5.1.2.3.3.5.5.2.1.4.3.7.4.2.1.5.2.7.3.3.1.5.2.8.3.3.1.6.1.9.2.8.1,1.7.1,2.4-.1h.2c1.7-.7,2.2-1,3.7-2,.3.1.6.1.8.3.5.3.6.6.6,1.1-3.7,3.6-9.9,5.2-14.9,2.2-.2-.1-.4-.3-.6-.4-1.4-1.1-1.4-1.8-1-2.8l7.5-11.7c.1-.2.2-.3.4-.4.1-.1.3-.3.5-.4.2-.1.4-.2.6-.3.2-.1.4-.2.7-.3.4-.2,1.9-.5,2.3-.5,1.4-.3,2.5-.1,3.8.7Z"/>
    <path class="st0" d="M71.8,2.86l.1.1v16.8c0,.1-.1.3-.2.4-.4.4-.8.7-1.5.7-.5,0-1.4.1-1.8-.1-.6-.2-1.3-.7-1.3-1.2l-.2-6.2c-.1-.1-.2-.2-.2-.3-1.1-1.5-2.3-2.2-4-3.2-.4-.2-.8-.5-1.2-.6-.4-.2-.7-.4-1.1-.5-.2-.1-.4-.2-.5-.3-.1-.1-.3-.1-.4-.2-.1-.1-.3-.1-.4-.2-.2-.2-.4-.2-.5-.3s-.3-.1-.4-.2c-.4-.1-.9-.4-1.3-.5-.1,0-.2-.1-.2-.1-.5-.1-1.3.5-1.3.7v12.2c-.3.5-1.3.9-1.8.9h-1c-.9,0-1.4-.7-1.4-.9V3.96c.1-.1.2-.1.2-.2.9-1.5,2.8-1.6,4.5-1h.3c.2.1.5.2.7.3l1.5.6c.9.3,1.7.7,2.6,1.1.3.1.6.3.9.4.2.1.3.1.5.2.1.1.3.1.5.2.3.2.6.3.9.5.3.2.6.3.9.5.2.1.4.2.6.4.2.1.4.2.6.4.2.1.4.3.6.4s.4.2.6.4c.2.1.5,0,.6-.2V3.56c0-.2.1-.4.3-.6.4-.3.8-.5,1.4-.6,1.1-.2,1.8.1,2.4.5Z"/>
    <path class="st0" d="M75.3,2.56h15.9c1.2.6,1.5,1.7.3,2.4-.1.1-.6,0-.8,0h-4c-.3,0-.4,0-.6.1-.1.1-.4.3-.4.4-.1.1-.1.2-.1.3v13.7c0,.4-.3.8-.7,1-.4.2-.7.3-1.2.4-.7.1-1.1,0-1.8-.1-.5-.1-1.1-.3-1.2-.8h0V5.76l-.9-.7h-4.7c-.5-.1-1.1-.5-1.1-1.1v-.1c-.1-.6.5-1.3,1.3-1.3h0Z"/>
    <path class="st0" d="M109.9,4.86c.5.3,1.2,1,1.4,1.5.1.3.2.9.2,1.2v.1c0,2-4.2,3.8-6.2,4.5l.1.5c.2.1.3.2.5.4.2.1.3.2.5.4,1.9,1.7,3.7,2.8,5.5,4.7.3.3.5.6.7.8.4.5.1,1.1-.5,1.4-.3.2-.9.4-1.3.5-.8.2-2.4.2-3.2-.2-.1,0-.1-.1-.2-.1l-.1-.1c-.1-.2-.2-.3-.4-.5-.4-.5-.7-1-1.1-1.4-.3-.3-.5-.6-.8-.9s-.5-.6-.8-.9c-.3-.3-.6-.6-.9-.9-.3-.3-.6-.6-.9-.9-.2-.1-.3-.3-.5-.4-.2-.1-.3-.3-.5-.4-.2-.1-.3-.3-.5-.4-.2-.1-.3-.3-.5-.4h0c-.1-.1-.3-.3-.3-.4h0c0-.4.2-.6.5-.9l.1-.1.1-.1h0c.8-.7,2.9-1.5,4-2,.1,0,.2-.1.3-.1.2-.1.6-.4.7-.7.5-.7.1-1.8-.4-2.5-.2-.2-.4-.3-.6-.5s-.5-.3-.7-.5c-.1-.1-.3-.2-.4-.2-.1-.1-.3-.1-.4-.2s-.3-.1-.4-.2-.3-.1-.4-.1c-.3-.1-.6-.2-.9-.2s-.6-.1-1-.1c-.2,0-.3,0-.5.1-.1,0-.3.1-.4.1-.1,0-.2,0-.3.1s-.2.1-.2.2c-.1.1-.1.2-.2.2-.1.1-.1.2-.1.3s-.1.2-.1.3-.1.2-.1.3v13.6c-.1.2-.2.4-.3.5-.3.3-.8.5-1.2.6-.5.1-1.1.1-1.5.1-.5,0-2.1-.6-2.1-.9V5.96c0-.2,0-.5.1-.7s.2-.4.3-.6c.6-.9,2-1.4,3.2-1.7,5.2-1.6,8.2-.6,12.7,1.9Z"/>
    <path class="st0" d="M130,3.06c.6.4,1.4,1.1,1.7,1.7,0,.1.1.1.1.2l6.6,14.5c-.1.8-.5,1.1-1.3,1.5-.4.1-.9.2-1,.2-1,.1-1.9-.1-2.6-.8-.1-.1-.3-.3-.3-.3,0-.1-.1-.1-.1-.2l-6.7-14.4-.1-.1c-.1-.1-.5-.1-.5-.1-.4,0-.9.3-.9.3h0l-5.8,8.7c-.2.3-.2,1-.1,1.3,0,.2.1.4.3.5s.3.3.5.5c.2.1.4.3.7.4.2.1.5.2.7.3.3.1.5.2.8.3.3.1.6.1.9.2.8.1,1.7.1,2.4-.1h.2c1.7-.7,2.2-1,3.7-2,.3.1.6.1.8.3.5.3.6.6.6,1.1-3.7,3.6-9.9,5.2-14.9,2.2-.2-.1-.4-.3-.6-.4-1.4-1.1-1.4-1.8-1-2.8l7.5-11.7c.1-.2.2-.3.4-.4.1-.1.3-.3.5-.4.2-.1.4-.2.6-.3s.4-.2.7-.3c.4-.2,1.9-.5,2.3-.5,1.4-.3,2.6-.1,3.9.6Z"/>
    <path class="st0" d="M6,2.56c.1,0,.2.1.3.1l.3.2h.1c.1,0,.2.1.2.1h0c.6.3,5.1,5.6,5.7,6.3h0l.1.1.1.1h.4c1.1,0,6.7-5.7,7.8-6.7.8-.4,1.6-.3,2.4.1.7.4.8.9.8,1.1v15.4c0,.1-.1.2-.1.3-.1.1-.3.3-.4.5-.2.1-.4.3-.6.3-.1,0-.2.1-.4.1-1,.3-3.3.3-3.6-.8v-10.4h0c0-.2-.4-.2-.4-.2-.1,0-.3,0-.3.1l-5,4.5c-.4.3-1.4.4-1.9.3,0,0-.5-.1-.6-.2h0l-4.6-4.7c-.2,0-.5.1-.5.3v10.7c0,.1-.1.1-.1.2-.5.3-1.2.5-1.9.5s-1.3-.1-1.9-.4c-.1,0-.3-.2-.3-.2V3.66c0-.1.1-.2.2-.3s.2-.2.3-.3c.2-.2.8-.6,1.1-.7h0c.2,0,.4-.1.6-.1h.2c.9.2,1.2.2,2,.3Z"/>
  </g>
  <g>
    <path d="M98,22.87v7.64h-1.25v-5.24l-2.33,5.24h-.87l-2.34-5.24v5.24h-1.25v-7.64h1.35l2.68,5.99,2.67-5.99h1.34Z"/>
    <path d="M99.61,25.84c.25-.47.6-.83,1.03-1.09.44-.26.92-.39,1.45-.39.48,0,.89.09,1.25.28.36.19.64.42.85.7v-.88h1.26v6.06h-1.26v-.9c-.21.29-.5.52-.87.72-.37.19-.79.29-1.25.29-.52,0-1-.13-1.43-.4-.43-.27-.78-.64-1.03-1.12-.25-.48-.38-1.02-.38-1.63s.13-1.15.38-1.62ZM103.93,26.39c-.17-.31-.4-.54-.68-.7-.28-.16-.58-.24-.9-.24s-.62.08-.9.24c-.28.16-.5.39-.68.69-.17.3-.26.67-.26,1.08s.09.78.26,1.1c.17.32.4.56.68.72s.58.25.9.25.62-.08.9-.24c.28-.16.5-.4.68-.71s.26-.68.26-1.09-.09-.78-.26-1.09Z"/>
    <path d="M109.09,24.62c.3-.17.67-.26,1.08-.26v1.3h-.32c-.49,0-.86.12-1.12.37-.25.25-.38.68-.38,1.3v3.19h-1.25v-6.06h1.25v.88c.18-.31.43-.55.73-.72Z"/>
    <path d="M111.39,23.42c-.15-.15-.23-.34-.23-.57s.08-.42.23-.57c.15-.15.34-.23.57-.23s.41.08.56.23c.15.15.23.34.23.57s-.08.42-.23.57c-.15.15-.34.23-.56.23s-.42-.08-.57-.23ZM112.58,24.46v6.06h-1.25v-6.06h1.25Z"/>
    <path d="M115.7,25.48v3.36c0,.23.05.39.16.49.11.1.29.15.54.15h.77v1.04h-.99c-.57,0-1-.13-1.3-.4-.3-.26-.45-.69-.45-1.29v-3.36h-.72v-1.02h.72v-1.51h1.26v1.51h1.47v1.02h-1.47Z"/>
    <path d="M118.39,23.42c-.15-.15-.23-.34-.23-.57s.08-.42.23-.57c.15-.15.34-.23.57-.23s.41.08.56.23c.15.15.23.34.23.57s-.08.42-.23.57c-.15.15-.34.23-.56.23s-.42-.08-.57-.23ZM119.58,24.46v6.06h-1.25v-6.06h1.25Z"/>
    <path d="M129.85,24.65c.38.2.67.49.89.88.22.39.32.86.32,1.41v3.58h-1.24v-3.39c0-.54-.14-.96-.41-1.25-.27-.29-.64-.43-1.11-.43s-.84.15-1.12.43c-.27.29-.41.71-.41,1.25v3.39h-1.24v-3.39c0-.54-.14-.96-.41-1.25-.27-.29-.64-.43-1.11-.43s-.84.15-1.12.43c-.27.29-.41.71-.41,1.25v3.39h-1.25v-6.06h1.25v.69c.21-.25.47-.44.78-.58.31-.14.65-.21,1.01-.21.48,0,.92.1,1.3.31.38.21.67.5.88.89.18-.37.47-.66.86-.88.39-.22.81-.32,1.25-.32.48,0,.9.1,1.28.3Z"/>
    <path d="M138.17,27.95h-4.63c.04.48.22.87.54,1.17.32.29.72.44,1.19.44.67,0,1.15-.28,1.43-.85h1.35c-.18.56-.51,1.01-1,1.37s-1.08.53-1.79.53c-.58,0-1.1-.13-1.56-.39-.46-.26-.82-.63-1.08-1.1-.26-.47-.39-1.02-.39-1.64s.13-1.17.38-1.64c.25-.47.61-.84,1.07-1.09.46-.26.98-.38,1.58-.38s1.08.12,1.53.37c.45.25.8.6,1.04,1.05s.37.97.37,1.56c0,.23-.01.43-.04.62ZM136.9,26.94c0-.46-.17-.83-.5-1.11-.32-.28-.72-.42-1.2-.42-.43,0-.8.14-1.11.41-.31.28-.49.65-.55,1.12h3.36Z"/>
  </g>
</svg>